<svg version="1.1" xmlns="http://www.w3.org/2000/svg" xmlns:xlink="http://www.w3.org/1999/xlink" width="596.0961" height="276.27628" viewBox="0,0,596.0961,276.27628"><g transform="translate(31.01802,-241.01877)"><g data-paper-data="{&quot;isPaintingLayer&quot;:true}" fill-rule="nonzero" stroke="none" stroke-width="0" stroke-linecap="butt" stroke-linejoin="miter" stroke-miterlimit="10" stroke-dasharray="" stroke-dashoffset="0" style="mix-blend-mode: normal"><path d="M542.55555,300.31907v168.16817h-328.89377c0.13144,-0.14177 0.25801,-0.28731 0.37926,-0.43644c4.64973,-5.71908 5.90512,-11.89021 2.66142,-18.37761c0.72137,-1.90238 0.26751,-4.69634 0.26751,-6.71148c0,-4.5045 0,-9.00901 0,-13.51351c0,-17.01702 0,-34.03403 0,-51.05105c0,-9.00901 0,-18.01802 0,-27.02703c0,-3.003 0,-6.00601 0,-9.00901c0,-1.96903 -0.57482,-3.98776 -0.12913,-5.90569c0.35825,-1.54164 1.2611,-2.94015 1.5015,-4.5045c0.7306,-4.75419 0.12913,-10.28714 0.12913,-15.11534c0,-5.50551 0,-11.01101 0,-16.51652h100.82621c0.04305,4.83556 0.07011,9.67089 0.05968,14.50566c-0.03168,14.6779 8.521,26.66491 23.00765,30.34433c0.70376,0.17875 1.4094,-0.40587 2.13503,-0.43209c2.55195,-0.09222 6.11275,1.57809 8.86634,1.60313c13.01247,0.11836 26.02609,0.04023 39.03904,0c3.24241,-0.01003 6.45601,-1.00364 9.48327,-2.16513c16.76855,-6.43372 18.74801,-24.47291 16.76167,-41.95899c0.61523,-0.5916 1.21099,-1.22365 1.78468,-1.8969z" fill="#000000"/><path d="M-31.01802,468.48724v-168.16817h142.25558c-0.20415,3.96676 0.14682,8.21591 0.14682,12.01201c0,10.51051 0,21.02102 0,31.53153c0,3.5035 0,7.00701 0,10.51051c0,1.23937 0.66617,2.53497 0.26751,3.70848c-0.94184,2.77243 -2.5967,5.32628 -3.14139,8.20321c-0.23633,1.24826 0.38767,2.56306 0.13838,3.8088c-0.2196,1.0974 -1.26831,1.90841 -1.5015,3.003c-0.59866,2.81005 -0.41189,6.73684 -0.13838,9.70472c-2.01911,6.05732 -1.63063,11.78008 -1.63063,18.11834c0,7.00701 0,14.01401 0,21.02102c0,5.00173 -0.07249,10.01351 0,15.01502c0.02129,1.46854 0.35274,2.95261 0.12913,4.40418c-0.24097,1.56427 -1.2611,2.94015 -1.5015,4.5045c-0.16087,1.04681 -0.12913,8.90902 -0.12913,10.61083c0,4.004 0,8.008 0,12.012z" fill="#000000"/><path d="M170.49749,468.0508c0.2761,-0.26729 0.44923,-0.60895 0.5886,-0.9754c0.08626,0.39341 0.22465,0.77247 0.43327,1.13217c0.05429,0.09361 0.10913,0.18683 0.16449,0.27967h-1.70692c0.18244,-0.13363 0.35683,-0.27793 0.52056,-0.43644z" fill="#000000"/><path d="M-29.51652,517.29505v-177.17718h360.98779c3.10661,2.27358 6.7584,4.00086 10.89373,5.05118c0.70376,0.17875 1.4094,-0.40587 2.13503,-0.43209c2.55195,-0.09222 6.11275,1.57809 8.86634,1.60313c13.01247,0.11836 26.02609,0.04023 39.03904,0c3.24241,-0.01003 6.45601,-1.00364 9.48327,-2.16513c2.75506,-1.05706 5.1109,-2.42739 7.11553,-4.05709h129.04685v177.17718z" fill="#ff5656"/><path d="M-20.50751,331.10886v-84.08408h132.13213v84.08408z" fill="#000000"/><path d="M565.07808,241.01877v90.09009h-149.21262c3.75056,-8.1844 3.95026,-18.63384 2.78488,-28.8929c1.71673,-1.6508 3.28182,-3.61653 4.63907,-5.91341c4.6128,-7.80628 3.01631,-19.94814 3.125,-27.96258c0.0315,-2.32254 0.57171,-4.63691 1.18613,-6.95953c3.93226,-4.41698 6.32138,-10.23795 6.32138,-16.61693c0,-1.2727 -0.0951,-2.52319 -0.27859,-3.74474z" fill="#000000"/><path d="M218.23123,331.10886v-90.09009h101.2254c-0.06571,0.73897 -0.09928,1.48719 -0.09928,2.24324c-0.80989,23.84048 0.05148,47.70853 0,71.56271c-0.01296,6.0071 1.41191,11.56348 4.09293,16.28414z" fill="#000000"/><path d="M81.59459,339.60136v-94.07808h154.65466v94.07808z" fill="#000000"/><path d="M305.31832,336.35511v-93.09309h175.67568v93.09309z" fill="#130000"/><path d="M317.33033,357.37613v-21.02102h144.14414v21.02102z" fill="#ff5656"/></g></g></svg>