<svg version="1.1" xmlns="http://www.w3.org/2000/svg" xmlns:xlink="http://www.w3.org/1999/xlink" width="644.8949" height="444.98574" viewBox="0,0,644.8949,444.98574"><g transform="translate(68.31231,9.48123)"><g data-paper-data="{&quot;isPaintingLayer&quot;:true}" fill-rule="nonzero" stroke="none" stroke-width="0" stroke-linejoin="miter" stroke-miterlimit="10" stroke-dasharray="" stroke-dashoffset="0" style="mix-blend-mode: normal"><path d="M332.58259,359.66967v-52.55255h37.53754v52.55255z" fill="#ff5656" stroke-linecap="butt"/><path d="M74.83484,358.67868v-52.55255h37.53754v52.55255z" fill="#ff5656" stroke-linecap="butt"/><path d="M202.95796,360.67568v-52.55255h37.53754v52.55255z" fill="#ff5656" stroke-linecap="butt"/><path d="M-21.26126,411.23123l51.05105,-28.52853" fill="none" stroke-linecap="round"/><path d="M149.16216,118.63739v-55.55556h58.55856v55.55556z" fill="#ff5656" stroke-linecap="butt"/><path d="M326.33934,115.63438v-60.06006h58.55856v60.06006z" fill="#ff5656" stroke-linecap="butt"/><path d="M252.76576,118.63739v-70.57057h28.52853v70.57057z" fill="#ff5656" stroke-linecap="butt"/><path d="M-58.55255,107.63589v-117.11712h635.13514v117.11712z" fill="#000000" stroke-linecap="butt"/><path d="M159.67267,337.85661v-45.04505h40.54054v45.04505z" fill="#d4cd00" stroke-linecap="butt"/><path d="M257.27027,355.87462v-66.06607h22.52252v66.06607z" fill="#d4cd00" stroke-linecap="butt"/><path d="M344.35736,340.85961v-49.54955h46.54655v49.54955z" fill="#d4cd00" stroke-linecap="butt"/><path d="M-68.31231,435.50451v-136.63664h603.6036v136.63664z" fill="#000000" stroke-linecap="butt"/></g></g></svg>